<?xml version="1.0" encoding="UTF-8"?>
<svg version="1.1" xmlns="http://www.w3.org/2000/svg" width="192" height="192">
<path d="M0 0 C4.96672397 4.12074352 7.25309497 7.53604415 8 14 C5.75267898 14.84124316 3.50261215 15.67314832 1.25 16.5 C0.29867187 16.85771484 0.29867187 16.85771484 -0.671875 17.22265625 C-4.03286607 18.44801758 -6.36871587 19 -10 19 C-12.125 16.0625 -12.125 16.0625 -14 13 C-17.51228138 11.24385931 -21.16703537 11.45592687 -25 12 C-31.06161394 14.55840448 -35.19121652 18.56331139 -38.25 24.375 C-39.53256253 28.86396885 -39.66022003 32.51450494 -37.75 36.8125 C-35.81803152 39.2274606 -34.95224902 40.12230435 -32 41 C-26.318582 41.45817887 -22.96438584 41.07319124 -18 38 C-17.34 37.34 -16.68 36.68 -16 36 C-19.63 35.67 -23.26 35.34 -27 35 C-26.49042339 29.98916329 -25.91507725 26.78769313 -24 22 C-13.11 22 -2.22 22 9 22 C6.64333832 33.78330838 3.21400138 41.53713554 -6.6640625 48.56640625 C-14.89542827 53.61809728 -22.27181309 55.18697317 -31.8125 55.25 C-32.58142578 55.270625 -33.35035156 55.29125 -34.14257812 55.3125 C-40.83662382 55.35769187 -46.02932851 53.89042731 -51.75 50.25 C-56.44994651 45.55005349 -58.58609813 40.94158002 -59.03125 34.38671875 C-58.89920311 24.30163721 -55.17802856 16.15921322 -48.375 8.8125 C-36.30450601 -2.57604517 -15.39509766 -8.24541708 0 0 Z " fill="#E95F0B" transform="translate(115,89)"/>
<path d="M0 0 C4.83795988 -0.12439375 9.67497181 -0.2147079 14.51416016 -0.2746582 C16.15722894 -0.29967054 17.80018794 -0.33369226 19.44287109 -0.37719727 C36.43259662 -0.81560852 36.43259662 -0.81560852 43 5 C45.44142289 8.86558624 45.44208616 12.50545737 45 17 C43.04307482 24.6914591 39.60462621 29.60914665 33 34 C25.47765464 38.02982787 17.38384116 37.65067329 9 38 C7.35 43.61 5.7 49.22 4 55 C-1.61 55 -7.22 55 -13 55 C-12.44873328 47.7735503 -11.20220966 41.15663431 -9.27734375 34.1796875 C-9.01240616 33.19501495 -8.74746857 32.21034241 -8.47450256 31.1958313 C-7.63619514 28.08684079 -6.78705036 24.98093488 -5.9375 21.875 C-5.36320987 19.75279953 -4.78963528 17.63040529 -4.21679688 15.5078125 C-2.81945792 10.33627388 -1.41323701 5.16721538 0 0 Z M15 13 C13.515 18.445 13.515 18.445 12 24 C18.36673495 24.46055842 18.36673495 24.46055842 24 22 C25.61290791 19.69584585 26.0878146 18.61470223 25.6875 15.8125 C25.14486253 14.0080743 25.14486253 14.0080743 24 13 C20.99668982 12.85806663 18.00782866 12.95763622 15 13 Z " fill="#AE1702" transform="translate(142,88)"/>
<path d="M0 0 C4.39660094 0.03975227 8.22072941 0.9827084 12.4375 2.1875 C12.1075 4.8275 11.7775 7.4675 11.4375 10.1875 C9.4575 10.5175 7.4775 10.8475 5.4375 11.1875 C5.705625 11.744375 5.97375 12.30125 6.25 12.875 C6.4375 15.1875 6.4375 15.1875 4.375 17.625 C3.405625 18.470625 2.43625 19.31625 1.4375 20.1875 C0.96699219 20.67089844 0.49648437 21.15429688 0.01171875 21.65234375 C-1.4375 23.0625 -1.4375 23.0625 -4.5625 25.1875 C-8.4375 25 -8.4375 25 -11.5625 24.1875 C-11.52125 25.21875 -11.48 26.25 -11.4375 27.3125 C-11.83272533 30.1720715 -12.38773036 31.03674451 -14.609375 32.953125 C-19.47514264 35.99054359 -23.77421756 38.1875 -29.5625 38.1875 C-32.18440354 35.56559646 -32.04509726 34.09842887 -32.25 30.4375 C-32.19004587 24.8884124 -32.19004587 24.8884124 -29.69140625 22.09765625 C-25.61744547 19.36161363 -21.56237328 17.1875 -16.5625 17.1875 C-16.47871094 16.59453125 -16.39492188 16.0015625 -16.30859375 15.390625 C-15.3441209 12.54265282 -14.04852461 11.67297151 -11.625 9.9375 C-10.91472656 9.41671875 -10.20445313 8.8959375 -9.47265625 8.359375 C-7.5625 7.1875 -7.5625 7.1875 -5.5625 7.1875 C-5.418125 6.218125 -5.27375 5.24875 -5.125 4.25 C-4.38679501 0.23088395 -4.38679501 0.23088395 0 0 Z " fill="#CD3D07" transform="translate(68.5625,40.8125)"/>
<path d="M0 0 C3.6844371 3.49528073 3.89027933 7.51866407 4.16796875 12.375 C4 15 4 15 2.3125 17.9375 C-2.66509403 21.03675666 -9.2448639 24.44750327 -15.26171875 23.73046875 C-17.66644962 22.71994139 -18.61062173 21.15353632 -20 19 C-20.99 21.475 -20.99 21.475 -22 24 C-27.75 24.125 -27.75 24.125 -30 23 C-32.32750471 16.01748586 -30.84047366 8.95107463 -29 2 C-28.38382813 2.15726562 -27.76765625 2.31453125 -27.1328125 2.4765625 C-25.72409373 2.82229201 -24.30345137 3.12292035 -22.875 3.375 C-21 4 -21 4 -19 7 C-18.54625 6.401875 -18.0925 5.80375 -17.625 5.1875 C-13.00487933 1.33739944 -6.03475173 -0.83512215 0 0 Z " fill="#F26B0D" transform="translate(36,86)"/>
<path d="M0 0 C3.54370123 2.15153289 4.71696691 6.21505237 6 10 C6 13.70322516 5.59031388 15.30790786 3.1875 18.125 C-2.38082266 21.40048392 -8.68711819 24.25206709 -15.234375 23.75390625 C-18.89942729 22.75481714 -19.97795797 21.14539872 -22 18 C-22.87109162 15.38672515 -23.18879799 13.69288829 -23.25 11 C-23.27578125 10.319375 -23.3015625 9.63875 -23.328125 8.9375 C-22.88145672 6.30003016 -22.14899691 5.5893623 -20 4 C-13.70212825 1.45531939 -6.83542343 -1.04017313 0 0 Z " fill="#E95F0B" transform="translate(42,108)"/>
<path d="M0 0 C3.47609168 3.16710575 4.71044725 5.08308297 6.125 9.5625 C6 13 6 13 3.89453125 15.4453125 C0.91715803 18.07311559 -2.07173458 20.20740997 -5.4375 22.3125 C-6.52933594 23.00988281 -7.62117188 23.70726563 -8.74609375 24.42578125 C-12.2075994 26.10043525 -14.21157903 26.47628992 -18 26 C-21.53090128 22.59085394 -21.89096475 19.2211948 -22.3125 14.5 C-21.93287062 10.24815094 -21.16016195 9.71321725 -18 7 C-16.08350796 5.68674919 -14.1212073 4.43858145 -12.125 3.25 C-11.11695313 2.63640625 -10.10890625 2.0228125 -9.0703125 1.390625 C-5.70015527 -0.13580754 -3.65405693 -0.47528293 0 0 Z " fill="#D24308" transform="translate(62,73)"/>
<path d="M0 0 C1.79792975 1.79792975 1.25670277 4.38385204 1.3125 6.8125 C1.34988281 7.87082031 1.38726562 8.92914063 1.42578125 10.01953125 C1 13 1 13 -0.671875 15.26953125 C-3.28612533 17.21267369 -5.41973368 18.04548073 -8.5625 18.875 C-9.51253906 19.14054687 -10.46257813 19.40609375 -11.44140625 19.6796875 C-14 20 -14 20 -17 18 C-17.66 18.66 -18.32 19.32 -19 20 C-21.5 20.25 -21.5 20.25 -24 20 C-24.66 19.34 -25.32 18.68 -26 18 C-26 11.08275038 -22.44168851 5.82034785 -19 0 C-16.0625 0.375 -16.0625 0.375 -13 1 C-12.67 1.66 -12.34 2.32 -12 3 C-10.8553125 2.2884375 -10.8553125 2.2884375 -9.6875 1.5625 C-6.02057494 -0.56943317 -4.01828612 -1.33942871 0 0 Z " fill="#F26B0D" transform="translate(35,67)"/>
<path d="M0 0 C-0.73865612 3.34447078 -1.43043274 4.70574352 -4 7 C-4.78375 7.86625 -5.5675 8.7325 -6.375 9.625 C-9.19246612 12.17413601 -10.42051845 12.32280079 -14 13 C-14.309375 13.61875 -14.61875 14.2375 -14.9375 14.875 C-16.52027416 18.04054832 -18.81267098 18.66132181 -22 20 C-23.33333333 20.33333333 -24.66666667 20.66666667 -26 21 C-26.886875 21.515625 -27.77375 22.03125 -28.6875 22.5625 C-32.92812148 24.4027697 -36.45078829 24.2729527 -41 24 C-41.4375 21.9375 -41.4375 21.9375 -41 19 C-35.8409282 12.33984234 -30.24741314 8.93029402 -21.98828125 7.72265625 C-19.32273637 6.75384328 -19.19809084 5.48651393 -18 3 C-12.36180306 -0.19458093 -6.30804397 -0.30038305 0 0 Z " fill="#E1550A" transform="translate(62,42)"/>
<path d="M0 0 C8.24814732 2.12688075 8.24814732 2.12688075 10.9375 5.25 C13.15906893 10.99994312 14.25296847 15.80227252 14 22 C12.68 22.33 11.36 22.66 10 23 C10.56847656 23.18433594 11.13695312 23.36867187 11.72265625 23.55859375 C18.36412543 26.05330254 22.56778508 29.73151745 26 36 C26 37.32 26 38.64 26 40 C20.83873337 40 18.51563792 38.96005611 14.8125 35.3125 C11.81160585 32.04888165 9.05707439 28.93527274 7 25 C7.25 22.625 7.25 22.625 8 21 C7.38640625 20.79890625 6.7728125 20.5978125 6.140625 20.390625 C3.04413969 18.37903966 2.75664839 16.24930154 1.75 12.75 C1.41484375 11.63109375 1.0796875 10.5121875 0.734375 9.359375 C0.02567445 6.11744697 -0.14020308 3.3047868 0 0 Z " fill="#FA750E" transform="translate(6,111)"/>
<path d="M0 0 C5.54721201 2.69436012 8.74114327 6.85285817 11 12.5 C11 16.14297334 9.61002947 18.77994106 8 22 C7 23 7 23 4.64453125 23.28515625 C2 23 2 23 0.19921875 21.49609375 C-2.29525169 18.0992309 -3.87417374 15.70462704 -4.625 11.5 C-3.84974146 7.1585522 -2.20348819 3.78724533 0 0 Z " fill="#9E0400" transform="translate(101,55)"/>
<path d="M0 0 C5.87039235 0.29351962 9.85599229 3.02412626 14 7 C15 10 15 10 14.22265625 12.04296875 C13.64837891 13.10451172 13.64837891 13.10451172 13.0625 14.1875 C12.68222656 14.90292969 12.30195312 15.61835937 11.91015625 16.35546875 C11.60980469 16.89816406 11.30945313 17.44085938 11 18 C4.94462479 17.69723124 1.48516542 14.72245962 -3 11 C-2.53199289 6.94393835 -2.12046792 3.53411321 0 0 Z " fill="#AA1202" transform="translate(84,45)"/>
<path d="M0 0 C6.95414828 1.34325601 11.29652568 3.29984247 15.7265625 8.92578125 C17.35814868 11.58336488 17.92229869 13.89194779 18 17 C12.87693555 17 10.51265462 15.97102269 6.8125 12.375 C3.52249099 8.83584468 1.15590304 5.31180608 -1 1 C-0.67 0.67 -0.34 0.34 0 0 Z " fill="#F26B0D" transform="translate(14,134)"/>
</svg>
